<svg width="17" height="17" viewBox="0 0 17 17" fill="none" xmlns="http://www.w3.org/2000/svg">
<path d="M1.73833 11.3762C1.93758 11.5754 2.20778 11.6873 2.48952 11.6873C2.77126 11.6873 3.04146 11.5754 3.24071 11.3762L8.50008 6.11682L13.7595 11.3762C13.9598 11.5697 14.2282 11.6768 14.5068 11.6744C14.7854 11.672 15.0519 11.5603 15.2489 11.3633C15.4459 11.1663 15.5576 10.8998 15.56 10.6212C15.5625 10.3426 15.4554 10.0742 15.2618 9.87383L9.25127 3.86326C9.05202 3.66407 8.78182 3.55218 8.50008 3.55218C8.21834 3.55218 7.94814 3.66407 7.74889 3.86326L1.73833 9.87383C1.53914 10.0731 1.42725 10.3433 1.42725 10.625C1.42725 10.9068 1.53914 11.177 1.73833 11.3762Z" fill="#31314A"/>
</svg>
