<svg width="18" height="18" viewBox="0 0 18 18" fill="none" xmlns="http://www.w3.org/2000/svg">
<path fill-rule="evenodd" clip-rule="evenodd" d="M9.75 1.5C9.75 1.30109 9.67098 1.11032 9.53033 0.96967C9.38968 0.829018 9.19891 0.75 9 0.75C8.80109 0.75 8.61032 0.829018 8.46967 0.96967C8.32902 1.11032 8.25 1.30109 8.25 1.5V2.25H4.5C3.90326 2.25 3.33097 2.48705 2.90901 2.90901C2.48705 3.33097 2.25 3.90326 2.25 4.5V13.5C2.25 14.0967 2.48705 14.669 2.90901 15.091C3.33097 15.5129 3.90326 15.75 4.5 15.75H8.25V16.5C8.25 16.6989 8.32902 16.8897 8.46967 17.0303C8.61032 17.171 8.80109 17.25 9 17.25C9.19891 17.25 9.38968 17.171 9.53033 17.0303C9.67098 16.8897 9.75 16.6989 9.75 16.5V15.75C9.94891 15.75 10.1397 15.671 10.2803 15.5303C10.421 15.3897 10.5 15.1989 10.5 15C10.5 14.8011 10.421 14.6103 10.2803 14.4697C10.1397 14.329 9.94891 14.25 9.75 14.25V3.75C9.94891 3.75 10.1397 3.67098 10.2803 3.53033C10.421 3.38968 10.5 3.19891 10.5 3C10.5 2.80109 10.421 2.61032 10.2803 2.46967C10.1397 2.32902 9.94891 2.25 9.75 2.25V1.5ZM12.75 2.25C12.5511 2.25 12.3603 2.32902 12.2197 2.46967C12.079 2.61032 12 2.80109 12 3C12 3.19891 12.079 3.38968 12.2197 3.53033C12.3603 3.67098 12.5511 3.75 12.75 3.75H13.5C13.6989 3.75 13.8897 3.82902 14.0303 3.96967C14.171 4.11032 14.25 4.30109 14.25 4.5V5.25C14.25 5.44891 14.329 5.63968 14.4697 5.78033C14.6103 5.92098 14.8011 6 15 6C15.1989 6 15.3897 5.92098 15.5303 5.78033C15.671 5.63968 15.75 5.44891 15.75 5.25V4.5C15.75 3.90326 15.5129 3.33097 15.091 2.90901C14.669 2.48705 14.0967 2.25 13.5 2.25H12.75ZM15.75 8.25C15.75 8.05109 15.671 7.86032 15.5303 7.71967C15.3897 7.57902 15.1989 7.5 15 7.5C14.8011 7.5 14.6103 7.57902 14.4697 7.71967C14.329 7.86032 14.25 8.05109 14.25 8.25V9.75C14.25 9.94891 14.329 10.1397 14.4697 10.2803C14.6103 10.421 14.8011 10.5 15 10.5C15.1989 10.5 15.3897 10.421 15.5303 10.2803C15.671 10.1397 15.75 9.94891 15.75 9.75V8.25ZM15.75 12.75C15.75 12.5511 15.671 12.3603 15.5303 12.2197C15.3897 12.079 15.1989 12 15 12C14.8011 12 14.6103 12.079 14.4697 12.2197C14.329 12.3603 14.25 12.5511 14.25 12.75V13.5C14.25 13.6989 14.171 13.8897 14.0303 14.0303C13.8897 14.171 13.6989 14.25 13.5 14.25H12.75C12.5511 14.25 12.3603 14.329 12.2197 14.4697C12.079 14.6103 12 14.8011 12 15C12 15.1989 12.079 15.3897 12.2197 15.5303C12.3603 15.671 12.5511 15.75 12.75 15.75H13.5C14.0967 15.75 14.669 15.5129 15.091 15.091C15.5129 14.669 15.75 14.0967 15.75 13.5V12.75Z" fill="#31314A"/>
</svg>
