<svg width="20" height="20" viewBox="0 0 20 20" fill="none" xmlns="http://www.w3.org/2000/svg">
<path fill-rule="evenodd" clip-rule="evenodd" d="M6.98334 5.99499C7.4976 5.19462 8.25187 4.57745 9.1382 4.2318C10.0245 3.88615 10.9975 3.82974 11.9178 4.07065C12.8382 4.31155 13.6587 4.83742 14.262 5.57299C14.8653 6.30856 15.2205 7.21614 15.2767 8.16582C15.7742 8.14239 16.2715 8.21881 16.7391 8.39059C17.2066 8.56237 17.6351 8.82602 17.9991 9.166C18.3632 9.50598 18.6555 9.91541 18.8588 10.3701C19.0622 10.8249 19.1724 11.3157 19.183 11.8137C19.1937 12.3118 19.1045 12.8069 18.9207 13.2699C18.737 13.7329 18.4624 14.1544 18.1132 14.5096C17.7639 14.8648 17.3471 15.1465 16.8873 15.338C16.4275 15.5296 15.934 15.6272 15.4358 15.625H5.72917C5.03339 15.6241 4.3458 15.4749 3.71222 15.1873C3.07865 14.8997 2.51364 14.4804 2.05486 13.9573C1.59608 13.4342 1.25407 12.8194 1.05161 12.1537C0.849164 11.488 0.790926 10.7868 0.880782 10.0969C0.970638 9.40693 1.20652 8.74406 1.57272 8.15244C1.93891 7.56082 2.42701 7.05405 3.00446 6.66591C3.58192 6.27777 4.23547 6.01717 4.92157 5.90148C5.60766 5.78579 6.31053 5.81766 6.98334 5.99499ZM10 13.125C10.15 13.125 10.2875 13.0725 10.3958 12.9833L12.4742 11.3217C12.5383 11.2703 12.5917 11.2069 12.6313 11.1349C12.6709 11.063 12.6959 10.9839 12.705 10.9023C12.7141 10.8206 12.7069 10.738 12.6841 10.6591C12.6612 10.5802 12.623 10.5066 12.5717 10.4425C12.5203 10.3784 12.4569 10.325 12.3849 10.2854C12.313 10.2458 12.2339 10.2207 12.1523 10.2117C12.0706 10.2026 11.988 10.2097 11.9091 10.2326C11.8302 10.2555 11.7566 10.2937 11.6925 10.345L10.625 11.2V8.33332C10.625 8.16756 10.5592 8.00859 10.4419 7.89138C10.3247 7.77417 10.1658 7.70832 10 7.70832C9.83424 7.70832 9.67527 7.77417 9.55806 7.89138C9.44085 8.00859 9.37501 8.16756 9.37501 8.33332V11.2L8.30667 10.3458C8.24254 10.2945 8.16894 10.2564 8.09008 10.2336C8.01121 10.2108 7.92862 10.2037 7.84702 10.2128C7.76542 10.2219 7.68641 10.247 7.6145 10.2866C7.54259 10.3262 7.47919 10.3796 7.42792 10.4437C7.37665 10.5079 7.33851 10.5815 7.31569 10.6603C7.29286 10.7392 7.28579 10.8218 7.29489 10.9034C7.30398 10.985 7.32905 11.064 7.36868 11.1359C7.40831 11.2078 7.46171 11.2712 7.52584 11.3225L9.60751 12.9875C9.71726 13.0762 9.85389 13.125 9.99501 13.1258H10V13.125Z" fill="#595F74"/>
</svg>
