<svg width="19" height="16" viewBox="0 0 19 16" fill="none" xmlns="http://www.w3.org/2000/svg">
<g clip-path="url(#clip0_175_392)">
<path d="M16.5714 14.8571H1.71429C0.765714 14.8571 0 14.0914 0 13.1428V2.85711C0 1.90854 0.765714 1.14282 1.71429 1.14282H16.5714C17.52 1.14282 18.2857 1.90854 18.2857 2.85711V13.1428C18.2857 14.0914 17.52 14.8571 16.5714 14.8571ZM1.71429 2.28568C1.39429 2.28568 1.14286 2.53711 1.14286 2.85711V13.1428C1.14286 13.4628 1.39429 13.7143 1.71429 13.7143H16.5714C16.8914 13.7143 17.1429 13.4628 17.1429 13.1428V2.85711C17.1429 2.53711 16.8914 2.28568 16.5714 2.28568H1.71429Z" fill="#111111"/>
<path d="M9.14286 10.2401C8.34286 10.2401 7.61143 9.92007 7.06286 9.33721L1.06286 2.96007C0.845717 2.73149 0.857146 2.36578 1.08572 2.14864C1.31429 1.93149 1.68 1.94292 1.89715 2.17149L7.89715 8.54864C8.54858 9.24578 9.73715 9.24578 10.3886 8.54864L16.3886 2.18292C16.6057 1.95435 16.9714 1.94292 17.2 2.16007C17.4286 2.37721 17.44 2.74292 17.2229 2.97149L11.2229 9.34864C10.6743 9.93149 9.94286 10.2515 9.14286 10.2515V10.2401Z" fill="#111111"/>
</g>
<defs>
<clipPath id="clip0_175_392">
<rect width="18.2857" height="16" fill="white"/>
</clipPath>
</defs>
</svg>
