<svg width="25" height="28" viewBox="0 0 25 28" fill="none" xmlns="http://www.w3.org/2000/svg">
<g clip-path="url(#clip0_191_580)">
<path d="M22.75 1.75H1.74453C0.782031 1.75 0 2.54297 0 3.51641V24.4836C0 25.457 0.782031 26.25 1.74453 26.25H22.75C23.7125 26.25 24.5 25.457 24.5 24.4836V3.51641C24.5 2.54297 23.7125 1.75 22.75 1.75ZM7.40469 22.75H3.77344V11.0578H7.41016V22.75H7.40469ZM5.58906 9.46094C4.42422 9.46094 3.48359 8.51484 3.48359 7.35547C3.48359 6.19609 4.42422 5.25 5.58906 5.25C6.74844 5.25 7.69453 6.19609 7.69453 7.35547C7.69453 8.52031 6.75391 9.46094 5.58906 9.46094ZM21.0164 22.75H17.3852V17.0625C17.3852 15.7063 17.3578 13.9617 15.4984 13.9617C13.6062 13.9617 13.3164 15.4383 13.3164 16.9641V22.75H9.68516V11.0578H13.1687V12.6547H13.218C13.7047 11.7359 14.8914 10.768 16.6578 10.768C20.3328 10.768 21.0164 13.1906 21.0164 16.3406V22.75Z" fill="#E0EDEA"/>
</g>
<defs>
<clipPath id="clip0_191_580">
<rect width="24.5" height="28" fill="white"/>
</clipPath>
</defs>
</svg>
