<svg width="20" height="20" viewBox="0 0 20 20" fill="none" xmlns="http://www.w3.org/2000/svg">
<path d="M16.025 12.7166L13.9083 12.475C13.6595 12.4457 13.4072 12.4733 13.1705 12.5556C12.9338 12.6378 12.7188 12.7727 12.5417 12.95L11.0083 14.4833C8.64266 13.2801 6.71982 11.3573 5.51667 8.99163L7.05834 7.44997C7.41667 7.09163 7.59167 6.59163 7.53334 6.0833L7.29167 3.9833C7.24443 3.57678 7.04933 3.20183 6.74353 2.92984C6.43774 2.65785 6.04259 2.50782 5.63334 2.5083H4.19167C3.25 2.5083 2.46667 3.29164 2.525 4.2333C2.96667 11.35 8.65834 17.0333 15.7667 17.475C16.7083 17.5333 17.4917 16.75 17.4917 15.8083V14.3666C17.5 13.525 16.8667 12.8166 16.025 12.7166Z" fill="#111111"/>
</svg>
