<svg width="16" height="16" viewBox="0 0 16 16" fill="none" xmlns="http://www.w3.org/2000/svg">
<path fill-rule="evenodd" clip-rule="evenodd" d="M10.8833 9.93266L14.4699 13.5193C14.596 13.6455 14.6668 13.8165 14.6667 13.9949C14.6667 14.1732 14.5957 14.3443 14.4696 14.4703C14.3434 14.5964 14.1724 14.6672 13.994 14.6671C13.8157 14.6671 13.6447 14.5961 13.5186 14.47L9.93193 10.8833C8.85973 11.7138 7.51145 12.1046 6.16134 11.9762C4.81124 11.8479 3.56075 11.21 2.66425 10.1924C1.76775 9.17479 1.29259 7.85387 1.33543 6.49836C1.37827 5.14285 1.93589 3.85457 2.89486 2.8956C3.85383 1.93663 5.14211 1.379 6.49762 1.33616C7.85314 1.29332 9.17406 1.76848 10.1917 2.66498C11.2093 3.56148 11.8471 4.81198 11.9755 6.16208C12.1038 7.51218 11.713 8.86047 10.8826 9.93266H10.8833ZM6.66659 10.6667C7.72746 10.6667 8.74487 10.2452 9.49502 9.49509C10.2452 8.74494 10.6666 7.72753 10.6666 6.66666C10.6666 5.60579 10.2452 4.58838 9.49502 3.83823C8.74487 3.08809 7.72746 2.66666 6.66659 2.66666C5.60573 2.66666 4.58831 3.08809 3.83817 3.83823C3.08802 4.58838 2.66659 5.60579 2.66659 6.66666C2.66659 7.72753 3.08802 8.74494 3.83817 9.49509C4.58831 10.2452 5.60573 10.6667 6.66659 10.6667Z" fill="#31314A"/>
</svg>
