<svg width="17" height="16" viewBox="0 0 17 16" fill="none" xmlns="http://www.w3.org/2000/svg">
<path d="M16.1946 2.5916L8.51829 0.0328316C8.38698 -0.0109439 8.24501 -0.0109439 8.11369 0.0328316L0.437389 2.5916C0.310015 2.63406 0.19923 2.71552 0.120729 2.82445C0.0422274 2.93337 -9.94902e-06 3.06424 1.75784e-09 3.1985V9.59542C1.75784e-09 9.76508 0.0673959 9.92778 0.187361 10.0478C0.307327 10.1677 0.470035 10.2351 0.639692 10.2351C0.809348 10.2351 0.972056 10.1677 1.09202 10.0478C1.21199 9.92778 1.27938 9.76508 1.27938 9.59542V4.08608L3.96529 4.98084C3.25168 6.13373 3.02475 7.52269 3.33434 8.84275C3.64393 10.1628 4.46472 11.306 5.61649 12.0214C4.17719 12.586 2.93299 13.6071 2.02302 15.0032C1.9757 15.0735 1.94283 15.1526 1.92632 15.2357C1.90981 15.3189 1.91 15.4045 1.92686 15.4876C1.94373 15.5707 1.97694 15.6496 2.02457 15.7197C2.0722 15.7898 2.13329 15.8498 2.2043 15.8961C2.27531 15.9424 2.35481 15.9742 2.43819 15.9895C2.52157 16.0048 2.60717 16.0034 2.69 15.9853C2.77283 15.9673 2.85124 15.9329 2.92069 15.8843C2.99013 15.8357 3.04922 15.7737 3.09451 15.7021C4.29953 13.8534 6.20261 12.7939 8.31599 12.7939C10.4294 12.7939 12.3325 13.8534 13.5375 15.7021C13.6313 15.8415 13.7762 15.9384 13.9409 15.9719C14.1057 16.0053 14.2769 15.9726 14.4177 15.8808C14.5585 15.789 14.6574 15.6454 14.6932 15.4812C14.729 15.317 14.6988 15.1453 14.609 15.0032C13.699 13.6071 12.45 12.586 11.0155 12.0214C12.1662 11.3061 12.9862 10.1636 13.2957 8.84449C13.6052 7.5254 13.379 6.13739 12.6667 4.98484L16.1946 3.80941C16.322 3.76697 16.4328 3.68552 16.5113 3.57659C16.5899 3.46766 16.6321 3.33679 16.6321 3.2025C16.6321 3.06822 16.5899 2.93734 16.5113 2.82841C16.4328 2.71949 16.322 2.63803 16.1946 2.5956V2.5916ZM12.1541 7.67635C12.1543 8.28314 12.0106 8.88132 11.7348 9.42183C11.4591 9.96233 11.0591 10.4297 10.5676 10.7857C10.0762 11.1417 9.50744 11.3761 8.90791 11.4697C8.30838 11.5632 7.6952 11.5133 7.11869 11.3241C6.54217 11.1348 6.01876 10.8115 5.59138 10.3807C5.164 9.94999 4.84484 9.42405 4.66008 8.84607C4.47533 8.26809 4.43024 7.65454 4.52852 7.05576C4.62681 6.45698 4.86566 5.89004 5.22548 5.40144L8.11369 6.36098C8.24501 6.40476 8.38698 6.40476 8.51829 6.36098L11.4065 5.40144C11.8925 6.06032 12.1545 6.85762 12.1541 7.67635Z" fill="#111111"/>
</svg>
